<svg xmlns="http://www.w3.org/2000/svg" width="61.588" height="61.588" viewBox="0 0 61.588 61.588">
  <g id="Group_1876" data-name="Group 1876" transform="translate(-296 -9929)">
    <g id="Group_1874" data-name="Group 1874" transform="translate(296 9929)">
      <path id="Path_1118" data-name="Path 1118" d="M476.918,65.1a30.022,30.022,0,1,1,30.023,30.022A30.022,30.022,0,0,1,476.918,65.1Z" transform="translate(-476.146 -34.309)" fill="#fff"/>
      <path id="Path_1119" data-name="Path 1119" d="M506.57,35.482a29.25,29.25,0,1,0,29.25,29.25,29.283,29.283,0,0,0-29.25-29.25Zm0,60.044a30.794,30.794,0,1,1,30.793-30.794A30.83,30.83,0,0,1,506.57,95.526Z" transform="translate(-475.775 -33.938)" fill="#c7c9cb"/>
      <path id="Path_1120" data-name="Path 1120" d="M506.923,107.651h-3.412v-.389h3.412v.389Z" transform="translate(-484.778 -57.738)" fill="#008a5e"/>
      <path id="Path_1121" data-name="Path 1121" d="M537.586,107.651h-3.412v-.389h3.412v.389Z" transform="translate(-494.731 -57.738)" fill="#008a5e"/>
      <path id="Path_1122" data-name="Path 1122" d="M512.578,107.864l.42-.051V106.13h-.425v-.285l.922-.167v2.135l.42.051v.3h-1.336v-.3Z" transform="translate(-487.719 -57.224)" fill="#008a5e"/>
      <path id="Path_1123" data-name="Path 1123" d="M518.017,107a.484.484,0,0,0,.218-.047.4.4,0,0,0,.147-.125v-.267a.745.745,0,0,0-.1-.415.3.3,0,0,0-.259-.141.282.282,0,0,0-.245.147.649.649,0,0,0-.095.355.659.659,0,0,0,.084.359.273.273,0,0,0,.245.134Zm-.08.795a.394.394,0,0,0,.322-.153.723.723,0,0,0,.123-.459v-.037a.557.557,0,0,1-.448.218.686.686,0,0,1-.546-.228.929.929,0,0,1-.2-.629.892.892,0,0,1,.236-.632.779.779,0,0,1,.6-.255.793.793,0,0,1,.617.262,1.058,1.058,0,0,1,.237.736v.539a1.026,1.026,0,0,1-.263.751.909.909,0,0,1-.678.268,1.371,1.371,0,0,1-.268-.027,1.155,1.155,0,0,1-.253-.078l.056-.36a1.3,1.3,0,0,0,.222.062,1.317,1.317,0,0,0,.243.02Z" transform="translate(-489.218 -57.207)" fill="#008a5e"/>
      <path id="Path_1124" data-name="Path 1124" d="M522.408,108.146v-.326l.8-.862a1.876,1.876,0,0,0,.248-.337.549.549,0,0,0,.074-.255.382.382,0,0,0-.084-.257.3.3,0,0,0-.24-.1.31.31,0,0,0-.262.117.5.5,0,0,0-.089.311h-.485l0-.011a.752.752,0,0,1,.222-.569.831.831,0,0,1,.618-.233.865.865,0,0,1,.6.2.683.683,0,0,1,.22.532.75.75,0,0,1-.124.416,3.957,3.957,0,0,1-.411.5l-.442.483,0,.009h.646l.02-.246h.379v.628Z" transform="translate(-490.898 -57.207)" fill="#008a5e"/>
      <path id="Path_1125" data-name="Path 1125" d="M528.86,106.579a.821.821,0,0,0-.089-.432.308.308,0,0,0-.512,0,.834.834,0,0,0-.087.434v.647a.828.828,0,0,0,.088.436.289.289,0,0,0,.259.137.283.283,0,0,0,.255-.137.835.835,0,0,0,.087-.436v-.647Zm.5.6a1.093,1.093,0,0,1-.226.748.866.866,0,0,1-1.228,0,1.094,1.094,0,0,1-.227-.748v-.548a1.1,1.1,0,0,1,.226-.748.861.861,0,0,1,1.227,0,1.1,1.1,0,0,1,.228.748v.548Z" transform="translate(-492.621 -57.207)" fill="#008a5e"/>
      <path id="Path_1126" data-name="Path 1126" d="M491.826,91.463v3.821h2.489a1.977,1.977,0,0,0,1.533-.555,2,2,0,0,0,.506-1.4,1.851,1.851,0,0,0-.506-1.341,2.04,2.04,0,0,0-1.533-.524Zm4.757-2.975h-1.172l-.1-1.158h-3.481v3.058h2.489a3.644,3.644,0,0,1,2.515.8,2.748,2.748,0,0,1,.89,2.156,2.83,2.83,0,0,1-.894,2.188,3.575,3.575,0,0,1-2.511.821H489.26v-.874l1.131-.194V87.331l-1.131-.194v-.881h7.323v2.233Z" transform="translate(-480.152 -50.92)" fill="#1a1818"/>
      <path id="Path_1127" data-name="Path 1127" d="M506.059,87.137v-.881h3.627v.881l-1.131.194v3.488h4.9V87.331l-1.13-.194v-.881h3.627v.881l-1.13.194v7.953l1.13.194v.874h-3.627v-.874l1.13-.194v-3.39h-4.9v3.39l1.131.194v.874h-3.627v-.874l1.13-.194V87.331l-1.13-.194Z" transform="translate(-485.605 -50.92)" fill="#1a1818"/>
      <path id="Path_1128" data-name="Path 1128" d="M532.984,86.256v2.233h-1.165l-.1-1.158h-2.24v7.953l1.13.194v.874h-3.626v-.874l1.13-.194V87.331h-2.247l-.1,1.158h-1.172V86.256Z" transform="translate(-491.621 -50.92)" fill="#1a1818"/>
      <path id="Path_1129" data-name="Path 1129" d="M549.325,87.137l-.791.118L545.42,94.7a4.182,4.182,0,0,1-.891,1.356,2.212,2.212,0,0,1-1.536.447c-.116,0-.251-.007-.406-.021a1.7,1.7,0,0,1-.294-.042l.041-1.033a2.13,2.13,0,0,0,.3.022c.153,0,.268.006.347.006a.883.883,0,0,0,.7-.246,3.88,3.88,0,0,0,.482-.808l.27-.575L541.5,87.262l-.818-.125v-.881h3.169v.881l-.846.132,1.532,3.71.506,1.3h.042l1.893-5.007-.88-.138v-.881h3.224v.881Z" transform="translate(-496.844 -50.92)" fill="#1a1818"/>
      <path id="Path_1130" data-name="Path 1130" d="M505.956,64.6h-1.739v-.689h1.739V64.6Z" transform="translate(-485.007 -43.666)" fill="#008a5e"/>
      <path id="Path_1131" data-name="Path 1131" d="M527.848,79.824H502.623V78.108h25.224v1.717Z" transform="translate(-484.489 -48.275)" fill="#008a5e"/>
      <path id="Path_1132" data-name="Path 1132" d="M512.272,64.6h-1.739v-.689h1.739V64.6Z" transform="translate(-487.057 -43.666)" fill="#008a5e"/>
      <path id="Path_1133" data-name="Path 1133" d="M518.59,64.6h-1.739v-.689h1.739V64.6Z" transform="translate(-489.108 -43.666)" fill="#008a5e"/>
      <path id="Path_1134" data-name="Path 1134" d="M524.907,64.6h-1.739v-.689h1.739V64.6Z" transform="translate(-491.158 -43.666)" fill="#008a5e"/>
      <path id="Path_1135" data-name="Path 1135" d="M531.224,64.6h-1.739v-.689h1.739V64.6Z" transform="translate(-493.208 -43.666)" fill="#008a5e"/>
      <path id="Path_1136" data-name="Path 1136" d="M537.541,64.6H535.8v-.689h1.739V64.6Z" transform="translate(-495.259 -43.666)" fill="#008a5e"/>
      <path id="Path_1137" data-name="Path 1137" d="M527.848,62.59H502.623v-.857h25.224v.857Z" transform="translate(-484.489 -42.96)" fill="#008a5e"/>
      <path id="Path_1138" data-name="Path 1138" d="M505.806,72.944h-1.165V64.906h1.165v8.038Z" transform="translate(-485.145 -43.99)" fill="#008a5e"/>
      <path id="Path_1139" data-name="Path 1139" d="M537.392,72.944h-1.165V64.906h1.165v8.038Z" transform="translate(-495.397 -43.99)" fill="#008a5e"/>
      <path id="Path_1140" data-name="Path 1140" d="M531.075,72.944h-1.165V64.906h1.165v8.038Z" transform="translate(-493.346 -43.99)" fill="#008a5e"/>
      <path id="Path_1141" data-name="Path 1141" d="M524.758,72.944h-1.165V64.906h1.165v8.038Z" transform="translate(-491.296 -43.99)" fill="#008a5e"/>
      <path id="Path_1142" data-name="Path 1142" d="M518.44,72.944h-1.165V64.906h1.165v8.038Z" transform="translate(-489.245 -43.99)" fill="#008a5e"/>
      <path id="Path_1143" data-name="Path 1143" d="M512.123,72.944h-1.165V64.906h1.165v8.038Z" transform="translate(-487.195 -43.99)" fill="#008a5e"/>
      <path id="Path_1144" data-name="Path 1144" d="M527.945,71.9h-1.277V65.909h1.277V71.9Z" transform="translate(-492.294 -44.315)" fill="#008a5e"/>
      <path id="Path_1145" data-name="Path 1145" d="M534.263,71.9h-1.277V65.909h1.277V71.9Z" transform="translate(-494.345 -44.315)" fill="#008a5e"/>
      <path id="Path_1146" data-name="Path 1146" d="M521.628,71.9h-1.277V65.909h1.277V71.9Z" transform="translate(-490.244 -44.315)" fill="#008a5e"/>
      <path id="Path_1147" data-name="Path 1147" d="M515.311,71.9h-1.277V65.909h1.277V71.9Z" transform="translate(-488.193 -44.315)" fill="#008a5e"/>
      <path id="Path_1148" data-name="Path 1148" d="M508.994,71.9h-1.277V65.909h1.277V71.9Z" transform="translate(-486.143 -44.315)" fill="#008a5e"/>
      <path id="Path_1149" data-name="Path 1149" d="M527.945,76.452h-1.277v-.74h1.277v.74Z" transform="translate(-492.294 -47.497)" fill="#008a5e"/>
      <path id="Path_1150" data-name="Path 1150" d="M534.263,76.452h-1.277v-.74h1.277v.74Z" transform="translate(-494.345 -47.497)" fill="#008a5e"/>
      <path id="Path_1151" data-name="Path 1151" d="M521.628,76.452h-1.277v-.74h1.277v.74Z" transform="translate(-490.244 -47.497)" fill="#008a5e"/>
      <path id="Path_1152" data-name="Path 1152" d="M515.311,76.452h-1.277v-.74h1.277v.74Z" transform="translate(-488.193 -47.497)" fill="#008a5e"/>
      <path id="Path_1153" data-name="Path 1153" d="M508.994,76.452h-1.277v-.74h1.277v.74Z" transform="translate(-486.143 -47.497)" fill="#008a5e"/>
      <path id="Path_1154" data-name="Path 1154" d="M528.069,56.249l-13.131-4.8-13.131,4.8-.1-.28,13.181-4.816h.1l13.179,4.816-.1.28Z" transform="translate(-484.193 -39.525)" fill="#008a5e"/>
      <path id="Path_1155" data-name="Path 1155" d="M500.628,55.326l-.2-.561,13.994-5.113h.2l13.993,5.113-.2.561-13.895-5.077-13.9,5.077Z" transform="translate(-483.778 -39.039)" fill="#008a5e"/>
      <path id="Path_1156" data-name="Path 1156" d="M503.179,58.124l-.557-1.2,12.613-4.609,12.612,4.609-.556,1.2Z" transform="translate(-484.489 -39.904)" fill="#008a5e"/>
    </g>
  </g>
</svg>